# xmcd
#
# Track frame offsets:
#	150
#	12149
#	23429
#	35251
#	49945
#	65769
#	81144
#	92044
#	107808
#	116064
#	132781
#	150031
#
# Disc length: 2221 seconds
#
# Revision: 1
# Processed by: cddbd v1.5.2PL0 Copyright (c) Steve Scherf et al.
# Submitted via: audiograbber 1.83.01
#
DISCID=8808ab0c
DTITLE=Ninety Pounds of Ugly - Never Going Back
DYEAR=2012
DGENRE=Rockbilly
TTITLE0=Way Down
TTITLE1=Chicken Chow Mein
TTITLE2=Railway Killer
TTITLE3=Gin and Tonic
TTITLE4=Love at the Bottom of a Bottle
TTITLE5=Wedding Ring
TTITLE6=Hell is Rising
TTITLE7=Absence of Sound
TTITLE8=Author of Tall Tales
TTITLE9=Neither Here Nor There
TTITLE10=Sunday Walk of Shame
TTITLE11=Dear Electric Company
EXTD=
EXTT0=
EXTT1=
EXTT2=
EXTT3=
EXTT4=
EXTT5=
EXTT6=
EXTT7=
EXTT8=
EXTT9=
EXTT10=
EXTT11=
PLAYORDER=
